<svg xmlns="http://www.w3.org/2000/svg" width="169" height="168.058" viewBox="0 0 169 168.058">
  <g id="img2" transform="translate(0 -1.428)">
    <path id="패스_1467" d="M362.955,84.676a7.781,7.781,0,0,0,0,11l17.986,17.986a7.78,7.78,0,0,0,11-11L373.958,84.676A7.79,7.79,0,0,0,362.955,84.676Zm25.487,21.487a2.829,2.829,0,0,1-4,4L366.456,92.178a2.829,2.829,0,0,1,4-4Z" transform="translate(-241.62 -54.245)"/>
    <path id="패스_1468" d="M168.4,76.008a14.907,14.907,0,0,0-9.45-10.957c11.712-19.54,13.336-37.838,3.966-47.208-4.11-4.11-10.063-6.214-17.228-6.082a2.476,2.476,0,0,0,.045,4.951h.047c5.861-.109,10.455,1.451,13.636,4.632,4.919,4.919,5.052,12.394,4.3,17.8-1.068,7.642-4.525,16.261-10.009,25q-21.418-.408-42.982-.563a253.514,253.514,0,0,0-1.563-25.409,2.476,2.476,0,0,0-2.2-2.185c-.738-.079-1.478-.15-2.217-.223C115.2,26.921,126.369,20.7,136.654,18.042a2.476,2.476,0,0,0-1.237-4.794,68.337,68.337,0,0,0-12.081,4.45c.8-3.46,1.175-7.609-.344-10.7a6.806,6.806,0,0,0-4.381-3.678c-2.891-.8-7.381-.38-12.369,6.174-.241.317-.475.637-.7.955-.027-.094-.054-.188-.083-.282-.98-3.262-3.543-8.735-9.7-8.735a6.924,6.924,0,0,0-5.392,2.464c-1.814,2.1-2.607,5.375-2.892,8.633-2.166-2.849-4.791-5.14-7.63-5.14a5.781,5.781,0,0,0-4.735,2.645c-3.185,4.494-3.232,14.233-.273,24.437-.741.009-1.482.026-2.223.042A57.758,57.758,0,0,0,59.338,23.4V17.969a2.474,2.474,0,0,0,2.046-2.436V8.544a6.839,6.839,0,0,0-6.832-6.832H39.157a6.839,6.839,0,0,0-6.832,6.832v6.99a2.475,2.475,0,0,0,2.047,2.436l0,5.426C31.028,25.425,22.1,31.409,17.1,40.1a10.446,10.446,0,0,0-1.364,5.887,159.218,159.218,0,0,0,2.128,18.11q-1.521.028-3.041.055A14.894,14.894,0,0,0,.6,76.007a29.743,29.743,0,0,0,0,11.9A14.861,14.861,0,0,0,9.749,98.759c.272,5.039.738,12.206,1.5,20.352q-3.065,8.682-5.987,17.357a10.657,10.657,0,0,0,5.206,12.851,26.924,26.924,0,0,0,5.521,2.063,27.137,27.137,0,0,0,25.577,18.1h85.869a27.137,27.137,0,0,0,25.577-18.106,26.975,26.975,0,0,0,5.522-2.065,10.648,10.648,0,0,0,5.2-12.851q-2.915-8.673-5.986-17.356c.762-8.145,1.228-15.312,1.5-20.351A14.857,14.857,0,0,0,168.4,87.912a29.749,29.749,0,0,0,0-11.9ZM104.45,40.7c.792,7.6,1.233,15.267,1.319,22.847q-27.544-.16-55.1.093c.084-7.609.525-15.305,1.32-22.94a264.611,264.611,0,0,1,52.461,0ZM79.15,12.895c.18-.254.447-.557.7-.557,1.782,0,5.521,5.085,8.18,11.125a2.475,2.475,0,0,0,4.725-1.389c-1.238-8.365.138-13.522,1.369-14.949a1.979,1.979,0,0,1,1.641-.745c5.707,0,5.9,11.356,5.9,11.467a2.476,2.476,0,0,0,4.741,1c1.77-4,6.755-11.9,10.887-10.757a1.862,1.862,0,0,1,1.259,1.088c1.053,2.146.49,6.893-1.355,11.744a109.919,109.919,0,0,0-19.27,14.252q-8.937-.655-17.911-.715c-3.449-10.814-2.641-19.048-.86-21.562ZM54.386,22.341H39.322l0-4.332H54.387v4.332ZM39.157,6.663H54.552a1.882,1.882,0,0,1,1.88,1.88v4.513H37.277V8.544a1.883,1.883,0,0,1,1.88-1.881Zm-16.409,56.6A153.729,153.729,0,0,1,20.68,45.677a5.512,5.512,0,0,1,.712-3.107c4.722-8.21,13.848-13.941,16.116-15.278H56.2A55.977,55.977,0,0,1,66,34.727q-8.284.375-16.526,1.255a2.475,2.475,0,0,0-2.2,2.185A253.674,253.674,0,0,0,45.718,63.69q-11.4.121-22.77.312a5.637,5.637,0,0,1-.2-.741ZM14.764,99.768l.062,0H14.9q1.665.031,3.331.059-1.488,4-2.951,8.011C15.066,104.826,14.9,102.105,14.764,99.768Zm112.671,64.766H41.566a22.326,22.326,0,0,1-20.211-13.076A10.7,10.7,0,0,0,28.722,145c1.427-3.637,2.723-6.987,3.963-10.242A2.476,2.476,0,0,0,28.059,133c-1.235,3.24-2.525,6.575-3.946,10.2a5.666,5.666,0,0,1-6.511,3.484,21.94,21.94,0,0,1-4.9-1.782,5.677,5.677,0,0,1-2.746-6.856c6.347-18.888,13.271-37.911,20.578-56.537a5.673,5.673,0,0,1,6.508-3.489A21.967,21.967,0,0,1,41.948,79.8a5.669,5.669,0,0,1,2.744,6.855c-4.154,12.36-8.576,24.841-13.144,37.1a2.476,2.476,0,0,0,4.639,1.729c3.113-8.352,6.156-16.808,9.1-25.259,13.017.141,26.116.214,39.217.214s26.2-.073,39.221-.214c5.226,15.026,10.773,30.04,16.557,44.778a10.7,10.7,0,0,0,7.368,6.454,22.326,22.326,0,0,1-20.211,13.078ZM156.3,144.9a22.028,22.028,0,0,1-4.9,1.785,5.672,5.672,0,0,1-6.508-3.487c-7.292-18.584-14.216-37.606-20.578-56.538a5.671,5.671,0,0,1,2.744-6.855,22.013,22.013,0,0,1,4.9-1.785,5.416,5.416,0,0,1,1.236-.143,5.712,5.712,0,0,1,5.273,3.63c7.292,18.584,14.216,37.606,20.578,56.538A5.67,5.67,0,0,1,156.3,144.9Zm-5.533-45.065q1.663-.03,3.326-.059l.088,0,.056,0c-.132,2.336-.3,5.056-.521,8.071q-1.461-4.011-2.95-8.008Zm12.778-12.9a9.886,9.886,0,0,1-7.288,7.6,9.649,9.649,0,0,1-2.175.29l-.082,0q-2.538.048-5.076.09-2.882-7.645-5.849-15.217a10.648,10.648,0,0,0-12.247-6.5,26.966,26.966,0,0,0-6.009,2.187,10.648,10.648,0,0,0-5.2,12.851q1.185,3.527,2.4,7.057c-24.913.259-50.112.259-75.025,0q1.211-3.53,2.4-7.053a10.645,10.645,0,0,0-5.2-12.851A26.939,26.939,0,0,0,38.172,73.2a10.652,10.652,0,0,0-12.247,6.5q-2.969,7.568-5.848,15.215-2.54-.043-5.08-.09h-.073a9.7,9.7,0,0,1-2.2-.294,9.882,9.882,0,0,1-7.274-7.6,24.833,24.833,0,0,1,0-9.935A9.911,9.911,0,0,1,14.919,69.1c46.171-.886,92.992-.886,139.163,0a9.912,9.912,0,0,1,9.464,7.894A24.811,24.811,0,0,1,163.546,86.929Z" transform="translate(0)"/>
    <path id="패스_1469" d="M135.071,327.051H134.9a10.429,10.429,0,0,0-10.416,10.188c-.2,6.712-.2,13.52,0,20.232a10.43,10.43,0,0,0,10.418,10.188h.165a10.43,10.43,0,0,0,10.416-10.188c.2-6.712.2-13.52,0-20.232A10.429,10.429,0,0,0,135.071,327.051Zm5.467,30.271a5.565,5.565,0,0,1-5.477,5.385h-.145a5.566,5.566,0,0,1-5.479-5.385c-.2-6.614-.2-13.321,0-19.935a5.566,5.566,0,0,1,5.48-5.385h.141a5.566,5.566,0,0,1,5.479,5.385C140.736,344,140.736,350.708,140.538,357.322Z" transform="translate(-83.294 -218.138)"/>
    <path id="패스_1470" d="M234.459,327.051h-.167a10.429,10.429,0,0,0-10.416,10.188c-.2,6.712-.2,13.52,0,20.232a10.43,10.43,0,0,0,10.418,10.188h.165a10.43,10.43,0,0,0,10.416-10.188c.2-6.712.2-13.52,0-20.232A10.429,10.429,0,0,0,234.459,327.051Zm5.467,30.271a5.565,5.565,0,0,1-5.476,5.385H234.3a5.566,5.566,0,0,1-5.479-5.385c-.2-6.614-.2-13.321,0-19.935a5.566,5.566,0,0,1,5.48-5.385h.141a5.565,5.565,0,0,1,5.479,5.385C240.124,344,240.124,350.708,239.926,357.322Z" transform="translate(-149.875 -218.138)"/>
    <path id="패스_1471" d="M333.848,327.051h-.167a10.429,10.429,0,0,0-10.416,10.188c-.2,6.712-.2,13.52,0,20.232a10.43,10.43,0,0,0,10.418,10.188h.165a10.43,10.43,0,0,0,10.416-10.188c.2-6.712.2-13.52,0-20.232A10.429,10.429,0,0,0,333.848,327.051Zm5.467,30.271a5.565,5.565,0,0,1-5.477,5.385h-.145a5.566,5.566,0,0,1-5.479-5.385c-.2-6.614-.2-13.321,0-19.935a5.566,5.566,0,0,1,5.48-5.385h.142a5.565,5.565,0,0,1,5.478,5.385C339.513,344,339.513,350.708,339.315,357.322Z" transform="translate(-216.457 -218.138)"/>
  </g>
</svg>
