<svg id="Layer_5" enable-background="new 0 0 62 62" height="512" viewBox="0 0 62 62" width="512" xmlns="http://www.w3.org/2000/svg"><g><g><g><path d="m6 6h10v4h-10z" fill="#aab2bd"/></g><g><path d="m17.83 11.83-1.83-1.83h-10l-1.83 1.83c-.75.75-1.17 1.77-1.17 2.83v13.34h16v-13.34c0-1.06-.42-2.08-1.17-2.83z" fill="#e6e9ed"/></g><g><path d="m15 14v11.8c-.91.53-1.67 1.29-2.2 2.2h-5.8v-14z" fill="#ff826e"/></g><g><path d="m56.11 51-.71 6.44c-.23 2.03-1.94 3.56-3.98 3.56h-1.42v-10z" fill="#fcd770"/></g><g><path d="m42 51h4v10h-4z" fill="#fcd770"/></g><g><path d="m34.65 51h3.35v10h-4v-10.05-.01c.21.04.43.06.65.06z" fill="#fcd770"/></g><g><path d="m24.44 34-.01.01 9.57 9.95.7.73c.19.2.45.31.73.31h21.35l1.22-11z" fill="#fcd770"/></g><g><path d="m26 61h-4-4-4-3.42c-.2 0-.39-.01-.58-.05-1.78-.25-3.19-1.68-3.4-3.51l-.78-7.06c.05-.03.09-.06.13-.1l11.23-13.34c.27.04.54.06.82.06s.55-.02.82-.06l13.01 12.9c.59.59 1.35.97 2.17 1.1v.01 10.05h-4z" fill="#fcd770"/></g><g><path d="m11.69 34-6.77 8.23-.92-8.23z" fill="#fcd770"/></g><g><path d="m38 51h4v10h-4z" fill="#ffeaa7"/></g><g><path d="m46 51h4v10h-4z" fill="#ffeaa7"/></g><g><path d="m50 40v5h-4v-5c0-.55.22-1.05.59-1.41.36-.37.86-.59 1.41-.59 1.1 0 2 .9 2 2z" fill="#ffeaa7"/></g><g><path d="m42 40v5h-4v-5c0-.55.22-1.05.59-1.41.36-.37.86-.59 1.41-.59 1.1 0 2 .9 2 2z" fill="#ffeaa7"/></g><g><path d="m61 30v2c0 1.1-.9 2-2 2h-1-20-2c-1.1 0-2-.9-2-2v-2c0-1.1.9-2 2-2h1 1 10 3.59 7.41c1.1 0 2 .9 2 2z" fill="#ffc729"/></g><g><path d="m34 32c0 1.1.9 2 2 2h-2-9.56l-.01.01-.83-.87c.26-.66.4-1.39.4-2.14 0-1.1-.29-2.12-.8-3h9.8 3c-1.1 0-2 .9-2 2z" fill="#ffc729"/></g><g><path d="m7 28h5.8c-.51.88-.8 1.9-.8 3 0 .75.14 1.48.4 2.14l-.71.86h-7.69-1c-1.1 0-2-.9-2-2v-2c0-1.1.9-2 2-2z" fill="#ffc729"/></g><g><path d="m18 25c.34 0 .68.03 1 .09 1.67.27 3.1 1.24 4 2.59.07.11.13.21.2.32.51.88.8 1.9.8 3 0 .75-.14 1.48-.4 2.14-.76 2.01-2.58 3.5-4.78 3.8-.27.04-.54.06-.82.06s-.55-.02-.82-.06c-2.2-.3-4.02-1.79-4.78-3.8-.26-.66-.4-1.39-.4-2.14 0-1.1.29-2.12.8-3 .53-.91 1.29-1.67 2.2-2.2.88-.51 1.91-.8 3-.8z" fill="#aab2bd"/></g><g><circle cx="18" cy="31" fill="#ccd1d9" r="2"/></g><g><path d="m23.6 33.14.83.87 9.57 9.95.7.73c.19.2.45.31.73.31h2.57 4 4 4 6.78 1.1c1.45 0 2.79.98 3.06 2.4.37 1.92-1.09 3.6-2.94 3.6h-1.89-6.11-4-4-4-3.35c-.22 0-.44-.02-.65-.06-.82-.13-1.58-.51-2.17-1.1l-13.01-12.9c2.2-.3 4.02-1.79 4.78-3.8z" fill="#ccd1d9"/></g><g><path d="m12.4 33.14c.76 2.01 2.58 3.5 4.78 3.8l-11.23 13.34c-.04.04-.08.07-.13.1-.52.4-1.16.62-1.82.62-.88 0-1.71-.38-2.28-1.05-1.07-1.25-.93-3.15.33-4.23l2.87-3.48v-.01l6.77-8.23z" fill="#ccd1d9"/></g><g><path d="m53.11 19.72-1.39 1.39c-.31-.58-.72-1.13-1.21-1.62s-1.04-.9-1.62-1.21l1.39-1.39 3.77-3.77c.39-.39.9-.58 1.41-.58.52 0 1.03.19 1.42.58.78.78.78 2.05 0 2.83z" fill="#b4dd7f"/></g><g><path d="m60.41 19.49c.79.78.79 2.04 0 2.82l-.26.27c-.29.29-.66.48-1.06.55l-6.53 1.15h-.01c-.01-1.09-.29-2.18-.83-3.17l1.39-1.39 5.61-.8c.09-.01.19-.02.28-.02.53 0 1.04.21 1.41.59z" fill="#b4dd7f"/></g><g><path d="m50.28 16.89-1.39 1.39-3.17-.83v-.01l1.15-6.53c.07-.4.26-.77.55-1.06l.27-.26c.39-.39.9-.59 1.41-.59s1.02.2 1.41.59c.45.44.66 1.07.57 1.69z" fill="#b4dd7f"/></g><g><path d="m37 8.33v1.96c-.63-.19-1.3-.29-2-.29l-2 .29v-1.96-5.33c0-.55.22-1.05.59-1.41.36-.37.86-.59 1.41-.59 1.1 0 2 .9 2 2z" fill="#b4dd7f"/></g><g><path d="m33 8.33v1.96c-1.08.32-2.05.89-2.84 1.66l-3.8-5.43c-.23-.34-.36-.74-.36-1.15v-.37c0-.55.22-1.05.59-1.41.36-.37.86-.59 1.41-.59.63 0 1.22.3 1.6.8z" fill="#b4dd7f"/></g><g><path d="m44 5v.37c0 .41-.13.81-.36 1.15l-3.8 5.43c-.79-.77-1.76-1.34-2.84-1.66v-1.96l3.4-4.53c.38-.5.97-.8 1.6-.8 1.1 0 2 .9 2 2z" fill="#b4dd7f"/></g><g><path d="m48 28h-10-1v-3.56l2.54-3.71c.25-.36.52-.69.83-1l.25-.24c.4-.4.83-.74 1.29-1.02 1.12-.69 2.39-1.03 3.65-1.03.05 0 .11 0 .16.01l3.17.83c.58.31 1.13.72 1.62 1.21s.9 1.04 1.21 1.62c.54.99.82 2.08.83 3.17.04 1.29-.29 2.58-.96 3.72z" fill="#ff826e"/></g><g><path d="m39.84 11.95c1.33 1.27 2.16 3.06 2.16 5.05v.35c0 .37-.03.75-.09 1.12-.46.28-.89.62-1.29 1.02l-.25.24c-.31.31-.58.64-.83 1l-2.54 3.71v-6.44h-4-4.97c-.02-.22-.03-.43-.03-.65v-.35c0-1.94.78-3.68 2.05-4.95.03-.03.07-.07.11-.1.79-.77 1.76-1.34 2.84-1.66l2-.29c.7 0 1.37.1 2 .29 1.08.32 2.05.89 2.84 1.66z" fill="#ff826e"/></g><g><path d="m37 24.44v3.56h-1-3v-10h4z" fill="#d3a06c"/></g><g><path d="m33 18v10h-9.8c-.07-.11-.13-.21-.2-.32v-9.68h5.03z" fill="#cf9e76"/></g></g><g><path d="m59 27h-5.875c.208-.612.335-1.239.39-1.871l5.745-1.013c.609-.107 1.163-.396 1.6-.833l.261-.261c.567-.568.879-1.321.879-2.123s-.312-1.555-.878-2.121c-.664-.665-1.615-.981-2.546-.849l-2.64.377 1.651-1.65c1.169-1.17 1.169-3.073 0-4.243-1.171-1.169-3.074-1.169-4.243 0l-1.65 1.65.377-2.641c.133-.93-.185-1.882-.848-2.545-1.134-1.134-3.11-1.133-4.242 0l-.263.263c-.438.437-.726.99-.833 1.6l-1.011 5.729c-.647.055-1.276.191-1.88.396-.032-1.904-.729-3.647-1.873-5.006l3.338-4.768c.354-.508.541-1.103.541-1.721v-.37c0-1.654-1.346-3-3-3-.939 0-1.836.448-2.4 1.2l-1.6 2.133v-2.333c0-1.654-1.346-3-3-3s-3 1.346-3 3v2.333l-1.6-2.134c-.564-.751-1.461-1.199-2.4-1.199-1.654 0-3 1.346-3 3v.37c0 .619.188 1.213.542 1.72l3.338 4.768c-1.171 1.392-1.88 3.185-1.88 5.142h-5v8.264c-.604-.423-1.277-.753-2-.969v-9.638c0-1.335-.52-2.591-1.464-3.535l-1.536-1.536v-4.586h-12v4.586l-1.536 1.536c-.944.944-1.464 2.199-1.464 3.535v12.528c-1.161.413-2 1.513-2 2.815v2c0 1.654 1.346 3 3 3h.105l.77 6.926-2.548 3.098c-.769.689-1.234 1.633-1.314 2.668-.082 1.066.255 2.1.95 2.911.762.888 1.869 1.397 3.037 1.397.334 0 .659-.056.978-.137l.632 5.689c.256 2.301 2.043 4.073 4.278 4.383.039.005.073.023.112.023.015 0 .027-.008.041-.008.179.019.355.05.539.05h40.84c2.551 0 4.688-1.912 4.969-4.448l.617-5.552h.994c1.198 0 2.323-.532 3.087-1.458.763-.925 1.067-2.139.836-3.33-.36-1.857-2.054-3.204-4.029-3.21l1-9.001h.106c1.654 0 3-1.346 3-3v-2c0-1.655-1.346-3.001-3-3.001zm-10.532 0-4.7-5.64-1.536 1.28 3.633 4.36h-7.865v-2.248l2.366-3.457c.209-.306.448-.593.709-.855l.247-.247c1.133-1.133 2.64-1.757 4.243-1.757s3.109.624 4.243 1.757c1.81 1.81 2.241 4.536 1.161 6.808h-2.501zm-15.284 6h-8.326l-.12-.125c.166-.598.262-1.225.262-1.875 0-.695-.105-1.366-.295-2h8.479c-.112.314-.184.648-.184 1v2c0 .352.072.686.184 1zm-6.404 2h6.22v6.475zm7.22-8v-8h2v8zm24.858-7.091c.311-.043.627.062.849.284.189.188.293.439.293.706s-.104.518-.294.708l-.26.261c-.146.146-.33.242-.533.277l-5.476.966c-.103-.611-.279-1.208-.523-1.783l.664-.664zm-4.101-6.08c.389-.39 1.025-.391 1.414 0 .39.39.39 1.024 0 1.415l-4.303 4.302c-.204-.263-.407-.526-.648-.766-.239-.239-.494-.454-.756-.658zm-6.903-2.742c.036-.203.132-.387.277-.532l.263-.262c.377-.378 1.035-.378 1.414 0 .221.221.327.538.283.848l-.755 5.28-.647.647c-.574-.244-1.178-.414-1.799-.517zm-6.654-6.687c.188-.251.487-.4.8-.4.551 0 1 .449 1 1v.37c0 .207-.063.405-.181.573l-3.184 4.549c-.505-.361-1.052-.666-1.635-.903v-.922zm-6.2-2.4c.551 0 1 .449 1 1v6.069c-.328-.041-.661-.069-1-.069s-.672.028-1 .069v-6.069c0-.551.449-1 1-1zm-8 3.37v-.37c0-.551.449-1 1-1 .313 0 .612.149.8.4l3.2 4.267v.922c-.583.237-1.13.542-1.635.903l-3.184-4.549c-.118-.169-.181-.367-.181-.573zm8 5.63c3.309 0 6 2.691 6 6v.35c0 .186-.027.369-.044.554-.368.261-.721.549-1.047.875l-.247.247c-.349.349-.667.732-.946 1.14l-.716 1.045v-4.211h-9c0-3.309 2.691-6 6-6zm-3 8v8h-8v-8zm-9 12c0 2.757-2.243 5-5 5s-5-2.243-5-5 2.243-5 5-5 5 2.243 5 5zm-9-5.736c-.676.473-1.264 1.061-1.736 1.736h-4.264v-12h6zm-7-18.264h8v2h-8zm-2.122 5.536 1.536-1.536h9.172l1.536 1.536c.558.558.878 1.331.878 2.121v9.343c-.695 0-1.366.105-2 .295v-11.295h-10v14h-2v-12.343c0-.79.32-1.563.878-2.121zm-2.878 19.464v-2c0-.551.449-1 1-1h8.295c-.19.634-.295 1.305-.295 2 0 .669.1 1.313.276 1.926l-.061.074h-8.215c-.551 0-1-.449-1-1zm3.117 3h4.454l-3.923 4.771zm-2.635 14.303c-.347-.406-.516-.923-.475-1.457.041-.533.287-1.018.691-1.365l9.515-11.548c.78 1.143 1.891 2.041 3.192 2.563l-10.16 12.07c-.808.642-2.089.522-2.763-.263zm5.116 8.029-.734-6.604 10.747-12.748c.13.007.258.02.389.02.15 0 .298-.013.446-.023l12.68 12.573c.537.532 1.18.911 1.874 1.153v8.297h-2v-7c0-.552-.448-1-1-1s-1 .448-1 1v7h-2v-10c0-.552-.448-1-1-1s-1 .448-1 1v10h-2v-14c0-.552-.448-1-1-1s-1 .448-1 1v14h-2v-17c0-.552-.448-1-1-1s-1 .448-1 1v17h-2v-14c0-.552-.448-1-1-1s-1 .448-1 1v14h-2v-10c0-.552-.448-1-1-1s-1 .448-1 1v9.55c-.759-.47-1.296-1.272-1.402-2.218zm41.402-5.332v8h-2v-8zm-4 8h-2v-8h2zm-4 0h-2v-8h2zm-4 0h-2v-8h2zm17.402-2.668c-.17 1.521-1.451 2.668-2.982 2.668h-.42v-8h3.994zm5.558-9.739c.119.611-.029 1.207-.417 1.676-.382.465-.944.731-1.543.731h-23.353c-.796 0-1.547-.309-2.112-.87l-11.792-11.691c1.274-.545 2.352-1.458 3.106-2.603l10.135 10.549c.375.391.9.615 1.442.615h22.456c1.008 0 1.902.685 2.078 1.593zm-18.96-3.593h-2v-4c0-.551.449-1 1-1s1 .449 1 1zm8 0h-2v-4c0-.551.449-1 1-1s1 .449 1 1zm6.883 0h-4.883v-4c0-1.654-1.346-3-3-3s-3 1.346-3 3v4h-2v-4c0-1.654-1.346-3-3-3s-3 1.346-3 3v4h-1.574l-.426-.444v-8.556h1 2 18.883zm4.117-12c0 .551-.449 1-1 1h-21-2c-.551 0-1-.449-1-1v-2c0-.551.449-1 1-1h2 21c.551 0 1 .449 1 1z"/><path d="m15 31c0 1.654 1.346 3 3 3s3-1.346 3-3-1.346-3-3-3-3 1.346-3 3zm4 0c0 .551-.449 1-1 1s-1-.449-1-1 .449-1 1-1 1 .449 1 1z"/><path d="m32 13h6v2h-6z"/></g></g></svg>