<svg id="cold" xmlns="http://www.w3.org/2000/svg" width="22" height="24.554" viewBox="0 0 22 24.554">
  <defs>
    <style>
      .cls-1 {
        fill: #c9f3ff;
      }

      .cls-2 {
        fill: #edf2fa;
      }

      .cls-3 {
        fill: #ffb9b7;
      }

      .cls-4 {
        fill: #fe8f8d;
      }

      .cls-5 {
        fill: #ffdfe0;
      }
    </style>
  </defs>
  <g id="XMLID_1984_" transform="translate(1 0.554)">
    <rect id="XMLID_1994_" class="cls-1" width="21" height="23"/>
    <rect id="XMLID_1985_" class="cls-2" width="16" height="18" transform="translate(2 3)"/>
  </g>
  <g id="XMLID_1446_" transform="translate(3.064 16.665)">
    <path id="XMLID_1455_" class="cls-3" d="M125.587,418h-4.6a.984.984,0,0,0-.983.983v.548a.983.983,0,0,0,.983.983h4.6a.983.983,0,0,0,.983-.983v-.548A.984.984,0,0,0,125.587,418Z" transform="translate(-120.001 -415.485)"/>
    <path id="XMLID_1454_" class="cls-3" d="M125.587,374h-4.6a.984.984,0,0,0-.983.983v.548a.983.983,0,0,0,.983.983h4.6a.983.983,0,0,0,.983-.983v-.548A.984.984,0,0,0,125.587,374Z" transform="translate(-120.001 -374)"/>
    <path id="XMLID_1450_" class="cls-3" d="M237.4,385.723a5.081,5.081,0,0,1-2.342-2.321,1.327,1.327,0,0,1,1.067-1.91h0a1.334,1.334,0,0,1,1.316.743,2.412,2.412,0,0,0,1.5,1.246,1.334,1.334,0,0,1,.971,1.158h0a1.326,1.326,0,0,1-1.675,1.4A5.026,5.026,0,0,1,237.4,385.723Z" transform="translate(-228.353 -381.059)"/>
    <path id="XMLID_1447_" class="cls-3" d="M312.021,385.723a5.081,5.081,0,0,1-2.342-2.321,1.327,1.327,0,0,1,1.067-1.91h0a1.334,1.334,0,0,1,1.316.743,2.412,2.412,0,0,0,1.5,1.246,1.334,1.334,0,0,1,.971,1.158h0a1.326,1.326,0,0,1-1.675,1.4A5.025,5.025,0,0,1,312.021,385.723Z" transform="translate(-298.705 -381.059)"/>
  </g>
  <path id="XMLID_1965_" class="cls-4" d="M306.167,233a2.779,2.779,0,1,0-.016-5.558H303.91" transform="translate(-291.364 -217.027)"/>
  <path id="XMLID_1964_" class="cls-3" d="M215.054,227.442a2.766,2.766,0,0,0-1.594.514,4.047,4.047,0,0,1-1.881.737,2.161,2.161,0,0,0,.245,4.307h3.246a2.779,2.779,0,1,0-.016-5.558Z" transform="translate(-201.768 -217.026)"/>
  <path id="XMLID_1086_" class="cls-3" d="M125.388,227.442a2.766,2.766,0,0,0-1.594.514,4.047,4.047,0,0,1-1.881.737,2.161,2.161,0,0,0,.245,4.307H125.4a2.779,2.779,0,1,0-.016-5.558Z" transform="translate(-115.979 -217.026)"/>
  <g id="XMLID_2004_" transform="translate(4.462 6.15)">
    <path id="XMLID_2003_" class="cls-4" d="M156,134.534h3.67a1.6,1.6,0,0,0,1.6-1.6h0a1.6,1.6,0,0,0-1.6-1.6H156" transform="translate(-154.399 -131.333)"/>
    <circle id="XMLID_2002_" class="cls-5" cx="1.601" cy="1.601" r="1.601"/>
  </g>
  <g id="XMLID_1028_" transform="translate(9.773 6.15)">
    <path id="XMLID_1032_" class="cls-4" d="M276.194,134.534h3.67a1.6,1.6,0,0,0,1.6-1.6h0a1.6,1.6,0,0,0-1.6-1.6h-3.67" transform="translate(-274.593 -131.333)"/>
    <circle id="XMLID_1031_" class="cls-5" cx="1.601" cy="1.601" r="1.601" transform="translate(0)"/>
  </g>
  <g id="XMLID_679_">
    <path id="XMLID_708_" d="M48.32,0H27.476A.478.478,0,0,0,27,.48v23.6a.478.478,0,0,0,.476.48H48.32a.478.478,0,0,0,.476-.48V10.908a.476.476,0,1,0-.952,0V23.6H27.952V.959H47.844V7.128a.476.476,0,1,0,.952,0V.48A.478.478,0,0,0,48.32,0Z" transform="translate(-27)"/>
    <path id="XMLID_748_" d="M70.454,40a.458.458,0,0,0-.454.463V59.518a.458.458,0,0,0,.454.463H86.426a.458.458,0,0,0,.454-.463V40.463A.458.458,0,0,0,86.426,40Zm5.4,12.7H73.98a1.247,1.247,0,0,1-.82-.309,1.315,1.315,0,0,1-.172-1.769h0a1.248,1.248,0,0,1,.849-.484,3.633,3.633,0,0,0,1.7-.679,1.718,1.718,0,0,1,1-.33h.01a1.774,1.774,0,0,1,1.752,1.76,1.792,1.792,0,0,1-.5,1.28,1.723,1.723,0,0,1-1.248.532Zm4.069,0H78.558a2.748,2.748,0,0,0,.434-2.875,3.82,3.82,0,0,0,.62-.367,1.717,1.717,0,0,1,1-.33h.01a1.774,1.774,0,0,1,1.752,1.76,1.792,1.792,0,0,1-.5,1.28,1.723,1.723,0,0,1-1.248.532Zm3.728-.532a1.725,1.725,0,0,1-1.012.516,2.742,2.742,0,0,0,0-3.539,1.8,1.8,0,0,1,1.016,3.024Zm-1.245-3.965H80.769l-.047,0-.1,0h-.015a2.609,2.609,0,0,0-1.526.5,2.884,2.884,0,0,1-.608.339,2.63,2.63,0,0,0-1.92-.84h-.015a2.609,2.609,0,0,0-1.526.5,2.734,2.734,0,0,1-1.281.514,2.145,2.145,0,0,0-1.46.832h0a2.256,2.256,0,0,0-.058,2.65h-1.31V47.277H85.972V52.7H84.405a2.721,2.721,0,0,0,.659-1.824A2.692,2.692,0,0,0,82.407,48.207Zm-9.322-2.688a.817.817,0,1,1,.817.833A.826.826,0,0,1,73.086,45.519Zm6.271-.833a.833.833,0,1,1-.817.833A.826.826,0,0,1,79.356,44.687Zm2.913,1.665H80.874a1.784,1.784,0,0,0,0-1.665h1.395a.833.833,0,0,1,0,1.665Zm-5.454,0H75.42a1.784,1.784,0,0,0,0-1.665h1.395a.833.833,0,0,1,0,1.665Zm9.157-5.427v5.427H83.787a1.773,1.773,0,0,0,.206-.833,1.743,1.743,0,0,0-1.724-1.758H79.356a1.705,1.705,0,0,0-1.271.571,1.706,1.706,0,0,0-1.271-.571H73.9a1.743,1.743,0,0,0-1.724,1.758,1.773,1.773,0,0,0,.206.833H70.908V40.925ZM72.723,56.688v-.444a.33.33,0,0,1,.327-.333H76.7a.33.33,0,0,1,.327.333v.444a.33.33,0,0,1-.327.333H73.049A.33.33,0,0,1,72.723,56.688Zm11.442,2.226a.579.579,0,0,1-.542.119,3.513,3.513,0,0,1-.588-.227h0a3.613,3.613,0,0,1-1.351-1.159,1.5,1.5,0,0,0-.085-.125,3.6,3.6,0,0,1-.214-.382.616.616,0,0,1,.014-.571.59.59,0,0,1,.467-.309l.055,0a.6.6,0,0,1,.541.349,2.378,2.378,0,0,0,1.472,1.248.616.616,0,0,1,.229,1.06Zm-3.615-1.06a.616.616,0,0,1,.322.221l.037.054a.619.619,0,0,1-.13.785.579.579,0,0,1-.542.119,3.512,3.512,0,0,1-.588-.227h0A3.623,3.623,0,0,1,78,57.14a.616.616,0,0,1,.014-.571.59.59,0,0,1,.467-.309l.055,0a.6.6,0,0,1,.541.349A2.379,2.379,0,0,0,80.55,57.854Zm-2.187,1.2h-.47a1.278,1.278,0,0,0,.044-.333V58.65A4.553,4.553,0,0,0,78.363,59.056Zm-5.314,0a.33.33,0,0,1-.327-.333v-.444a.33.33,0,0,1,.327-.333H76.7a.33.33,0,0,1,.327.333v.444a.33.33,0,0,1-.327.333Zm12.114,0a1.562,1.562,0,0,0,.119-.753,1.526,1.526,0,0,0-1.1-1.339,1.465,1.465,0,0,1-.907-.768,1.493,1.493,0,0,0-2.668-.078,1.558,1.558,0,0,0-.19.674,1.475,1.475,0,0,1-.528-.6,1.489,1.489,0,0,0-2.15-.631,1.229,1.229,0,0,0-1.038-.579H73.049a1.248,1.248,0,0,0-1.234,1.258v.444a1.267,1.267,0,0,0,.279.8,1.267,1.267,0,0,0-.279.8v.444a1.276,1.276,0,0,0,.044.333h-.952V53.629H85.972v5.427Z" transform="translate(-67.542 -37.713)"/>
    <path id="XMLID_1026_" d="M292.042,266.06a.57.57,0,1,0,.4.167A.576.576,0,0,0,292.042,266.06Z" transform="translate(-279 -253.4)"/>
    <path id="XMLID_1156_" d="M202.382,266.06a.571.571,0,1,0,.4.167A.575.575,0,0,0,202.382,266.06Z" transform="translate(-193.567 -253.4)"/>
    <path id="XMLID_1157_" d="M465.572,177.33a.572.572,0,1,0,.4.167A.576.576,0,0,0,465.572,177.33Z" transform="translate(-444.347 -168.892)"/>
  </g>
</svg>
