<svg xmlns="http://www.w3.org/2000/svg" width="189.408" height="185.929" viewBox="0 0 189.408 185.929">
  <g id="img_cooking" transform="translate(0 -4.416)">
    <g id="그룹_10" transform="translate(0 4.416)">
      <g id="그룹_9">
        <path id="패스_23" d="M185.929,171.437H166.705L162.038,127.1l5.165,7.746,1.279,6.407a10.566,10.566,0,1,0,19.812-6.794l-2.7-5.4a.342.342,0,0,0-.041-.054c-.006-.016-.006-.032-.013-.047L166.636,94.3a3.169,3.169,0,0,0-1.595-1.418l-8.54-3.416a28.15,28.15,0,0,0,6.968-35.632l-1.626-16.267c5.074-2.149,8.329-6.369,8.329-11.09,0-6.785-6.734-12.334-15.136-12.6a18.9,18.9,0,0,0-32.755,0c-8.4.262-15.136,5.811-15.136,12.6,0,4.721,3.255,8.94,8.329,11.09l-1.626,16.267a28.142,28.142,0,0,0,6.971,35.629l-8.54,3.416a3.152,3.152,0,0,0-1.289.958l-10.636,13.3L87.5,96.851l-3.432-5.72a11.917,11.917,0,0,0-2.13-2.553V80.048a9.441,9.441,0,0,0-6.3-8.874V57.989H78.79a9.466,9.466,0,0,0,9.454-9.454V29.627a9.466,9.466,0,0,0-9.454-9.454H66.184a9.466,9.466,0,0,0-9.454,9.454V48.535a9.466,9.466,0,0,0,9.454,9.454h3.151V71.174a9.441,9.441,0,0,0-6.3,8.874V92.666a11.706,11.706,0,0,0,4.777,14.726l5.962,3.577L94.723,129.3a9.413,9.413,0,0,0,12.278.145l8.808-7.343-5.2,49.334H55.52l3.7-7.393a15.747,15.747,0,0,0,10.113-14.666v-6.883a9.431,9.431,0,0,0-3.151-18.328H9.454A9.431,9.431,0,0,0,6.3,142.495v6.883a15.747,15.747,0,0,0,10.113,14.666l3.7,7.393H3.151A3.152,3.152,0,0,0,0,174.588v12.605a3.152,3.152,0,0,0,3.151,3.151H185.929a3.152,3.152,0,0,0,3.151-3.151V174.588A3.152,3.152,0,0,0,185.929,171.437ZM69.329,51.686H66.178a3.157,3.157,0,0,1-3.151-3.151V29.627a3.157,3.157,0,0,1,3.151-3.151h3.151Zm113.328,85.59a4.262,4.262,0,1,1-7.992,2.742l-.813-4.068,7.239-1.809ZM161.648,98.31,178.06,128.4l-6.5,1.623-11.08-16.62-4.576-17.389Zm-6.917,19.554,5.641,53.573H116.949l5.638-53.573Zm-30.889-6.3L128.486,93.9c.126.047.255.082.381.126.633.233,1.27.457,1.922.646.249.072.5.129.75.192.6.158,1.2.309,1.818.425.309.06.621.095.93.142.57.088,1.138.183,1.717.24.407.038.816.041,1.223.063.479.025.949.072,1.431.072s.952-.047,1.431-.072c.41-.022.816-.025,1.223-.063.58-.054,1.147-.148,1.717-.24.309-.047.621-.082.93-.142.615-.117,1.216-.271,1.818-.425.249-.066.5-.12.75-.192.652-.189,1.292-.41,1.922-.646.126-.047.255-.079.381-.126l4.648,17.663ZM113.448,26.475c0-3.416,4.33-6.3,9.454-6.3a4.922,4.922,0,0,1,.533.041l.507.047a3.2,3.2,0,0,0,3.136-1.9,12.6,12.6,0,0,1,23.165,0,3.179,3.179,0,0,0,3.136,1.9l.507-.047a4.8,4.8,0,0,1,.529-.041c5.124,0,9.454,2.887,9.454,6.3,0,2.518-2.546,4.926-6.192,5.858A3.151,3.151,0,0,0,155.32,35.7l1.916,19.138H120.082L121.994,35.7a3.151,3.151,0,0,0-2.357-3.366C115.994,31.4,113.448,28.993,113.448,26.475ZM116.6,67.443a21.987,21.987,0,0,1,.93-6.3h42.256A22.078,22.078,0,0,1,146,88.219l-.1.038a21.892,21.892,0,0,1-14.477,0l-.1-.038A22.106,22.106,0,0,1,116.6,67.443ZM75.632,26.475h3.151a3.157,3.157,0,0,1,3.151,3.151V48.535a3.157,3.157,0,0,1-3.151,3.151H75.632ZM72.481,76.9a3.157,3.157,0,0,1,3.151,3.151v5.477c-.019,0-.041,0-.06-.006-.076-.009-.142-.044-.217-.054-.173-.022-.343.009-.514-.006A11.851,11.851,0,0,0,73.2,85.44c-.274.016-.545.016-.813.05a11.677,11.677,0,0,0-1.91.422c-.268.082-.526.167-.788.265-.12.044-.243.072-.359.12V80.048h0A3.157,3.157,0,0,1,72.481,76.9Zm-1.428,25.091a5.479,5.479,0,0,1-2.07-7.248c.013-.025.035-.041.047-.066a7,7,0,0,1,.41-.684,4.7,4.7,0,0,1,2.039-1.727c.044-.022.088-.05.132-.072a5.493,5.493,0,0,1,1.7-.454c.044,0,.085-.009.129-.013a5.626,5.626,0,0,1,1.714.132c.06.013.12.025.176.041a5.489,5.489,0,0,1,1.689.759c.016.009.035.016.05.025a5.547,5.547,0,0,1,1.6,1.692l2.455,4.094-5.975,5.975ZM102.96,124.6a3.14,3.14,0,0,1-4.094-.047l-18.628-16.3,5.077-5.077L98.87,114.022a3.147,3.147,0,0,0,4.428-.492l12.085-15.107,6.022-2.408-4.453,16.926ZM9.454,136.772a3.151,3.151,0,1,1,0-6.3H66.178a3.151,3.151,0,1,1,0,6.3Zm3.151,12.605v-6.3H63.027v6.3a9.466,9.466,0,0,1-9.454,9.454H22.059A9.466,9.466,0,0,1,12.605,149.377Zm39.02,15.757-3.151,6.3H40.967v-6.3Zm-16.96,0v6.3H27.158l-3.151-6.3Zm148.113,18.908H6.3v-6.3H182.777Z" transform="translate(0 -4.416)"/>
      </g>
    </g>
    <path id="패스_61" d="M130.739,135.387H149.13l-.938,14.262-8.257,4.692-9.2-7.131Z" fill="#f6f6f6" stroke="#707070" stroke-width="1"/>
    <g id="그룹_12" transform="translate(127.053 131.469)">
      <g id="그룹_11">
        <path id="패스_24" d="M342.059,324.416H323.151A3.152,3.152,0,0,0,320,327.567v9.454a12.605,12.605,0,1,0,25.211,0v-9.454A3.152,3.152,0,0,0,342.059,324.416Zm-3.151,12.605a6.3,6.3,0,1,1-12.605,0v-6.3h12.605Z" transform="translate(-320 -324.416)"/>
      </g>
    </g>
    <g id="그룹_14" transform="translate(34.51 98.744)">
      <g id="그룹_13" transform="translate(0 0)">
        <rect id="사각형_8" width="6.327" height="16.105"/>
      </g>
    </g>
    <g id="그룹_16" transform="translate(50.615 105.071)">
      <g id="그룹_15" transform="translate(0 0)">
        <rect id="사각형_9" width="6.327" height="12.654"/>
      </g>
    </g>
    <g id="그룹_18" transform="translate(18.981 105.071)">
      <g id="그룹_17" transform="translate(0 0)">
        <rect id="사각형_10" width="6.327" height="12.654"/>
      </g>
    </g>
    <g id="그룹_20" transform="translate(34.51 86.09)">
      <g id="그룹_19" transform="translate(0 0)">
        <rect id="사각형_11" width="6.327" height="6.327"/>
      </g>
    </g>
    <g id="그룹_22" transform="translate(18.981 92.417)">
      <g id="그룹_21" transform="translate(0 0)">
        <rect id="사각형_12" width="6.327" height="6.327"/>
      </g>
    </g>
    <g id="그룹_24" transform="translate(50.615 92.417)">
      <g id="그룹_23" transform="translate(0 0)">
        <rect id="사각형_13" width="6.327" height="6.327"/>
      </g>
    </g>
  </g>
</svg>
