<svg xmlns="http://www.w3.org/2000/svg" width="162.73" height="224.637" viewBox="0 0 162.73 224.637">
  <g id="img1" transform="translate(-91.644 -297)">
    <g id="그룹_6">
      <g id="사각형_7" transform="translate(145.231 297)" fill="none" stroke="#010101" stroke-width="5">
        <rect width="109.143" height="202" rx="10" stroke="none"/>
        <rect x="2.5" y="2.5" width="104.143" height="197" rx="7.5" fill="none"/>
      </g>
      <g id="패스_16" transform="translate(157.231 383.016)" fill="none">
        <path d="M55.967-11.269,92.816-4.882C98.339-4.882,97-1.539,97,1.874V113.692c0,3.413,1.339,8.053-4.184,8.053l-36.849,6.109c-5.523,0-8.538-1.586-8.538-5V-6.548C47.429-9.961,50.444-11.269,55.967-11.269Z" stroke="none"/>
        <path d="M 55.55409240722656 -6.265953063964844 C 53.89212036132813 -6.241615295410156 52.93882751464844 -6.072242736816406 52.4288330078125 -5.932746887207031 L 52.4288330078125 122.4315643310547 C 52.88413238525391 122.5925445556641 53.82938385009766 122.8205947875977 55.57534027099609 122.8506317138672 L 91.99830627441406 116.8120956420898 L 92.13360595703125 116.789665222168 C 92.12080383300781 116.4117965698242 92.09714508056641 116.01611328125 92.07896423339844 115.7118606567383 C 92.04013061523438 115.0626220703125 92 114.3912734985352 92 113.6917266845703 L 92 1.874053955078125 C 92 1.222969055175781 92.03523254394531 0.6131668090820313 92.07103729248047 0.06337738037109375 L 91.96220397949219 0.0445098876953125 L 55.55409240722656 -6.265953063964844 M 55.96704864501953 -11.2689208984375 L 92.81608581542969 -4.882034301757813 C 98.33894348144531 -4.882034301757813 97 -1.538749694824219 97 1.874053955078125 L 97 113.6917266845703 C 97 117.1045303344727 98.33894348144531 121.7447738647461 92.81608581542969 121.7447738647461 L 55.96704864501953 127.8539428710938 C 50.44419860839844 127.8539428710938 47.4288330078125 126.2683181762695 47.4288330078125 122.8555297851563 L 47.4288330078125 -6.548187255859375 C 47.4288330078125 -9.960990905761719 50.44419860839844 -11.2689208984375 55.96704864501953 -11.2689208984375 Z" stroke="none" fill="#010101"/>
      </g>
      <line id="선_3" y2="21" transform="translate(222.731 389.5)" fill="none" stroke="#010101" stroke-linecap="round" stroke-width="5"/>
      <g id="패스_1705" transform="translate(153.231 363)" fill="none">
        <path d="M22,0A22.254,22.254,0,0,1,44,22.5,22.254,22.254,0,0,1,22,45,22.254,22.254,0,0,1,0,22.5,22.254,22.254,0,0,1,22,0Z" stroke="none"/>
        <path d="M 22 5 C 17.48040008544922 5 13.22535514831543 6.806133270263672 10.0186767578125 10.08568954467773 C 6.782333374023438 13.39558982849121 5 17.80441093444824 5 22.5 C 5 27.19558906555176 6.782333374023438 31.60441207885742 10.0186767578125 34.91431045532227 C 13.22535514831543 38.19386672973633 17.48040008544922 40 22 40 C 26.51959991455078 40 30.77464485168457 38.19386672973633 33.9813232421875 34.91431045532227 C 37.21766662597656 31.60441207885742 39 27.19558906555176 39 22.5 C 39 17.80441093444824 37.21766662597656 13.39558982849121 33.9813232421875 10.08568954467773 C 30.77464485168457 6.806133270263672 26.51959991455078 5 22 5 M 22 0 C 34.1502685546875 0 44 10.07358932495117 44 22.5 C 44 34.92641067504883 34.1502685546875 45 22 45 C 9.8497314453125 45 0 34.92641067504883 0 22.5 C 0 10.07358932495117 9.8497314453125 0 22 0 Z" stroke="none" fill="#010101"/>
      </g>
      <line id="선_4" x1="10" transform="translate(194.66 382.5)" fill="none" stroke="#010101" stroke-width="5"/>
      <path id="패스_17" d="M559.815-466.984l24.7,43.426v53.653h27.732c0-.005,3.265-3.416,3.265-6.4s-4.366-5.556-4.366-5.556H585.461" transform="translate(-459.769 889)" fill="none" stroke="#010101" stroke-width="5"/>
      <path id="패스_18" d="M589.019-451.771l12.988,27.122v43.888" transform="translate(-461.769 887)" fill="none" stroke="#010101" stroke-width="5"/>
      <path id="패스_19" d="M561.589-465.864l28.984,15.422,28.452-43.874-2.659-10.37h-27.92L556.537-475.17Z" transform="translate(-461.769 887)" fill="none" stroke="#010101" stroke-width="5"/>
      <path id="패스_20" d="M609.942-448.15c.614-.2,59.112,0,59.112,0v30.477H609.942" transform="translate(-461.769 887)" fill="none" stroke="#010101" stroke-width="5"/>
      <path id="패스_21" d="M600.532-494.58s-3.119-.511-4.7,1.227-1.636,5.727-1.636,5.727l30.886,25.772,47.863-7.977s2.461-2.915,1.9-5.421-4.148-4.6-4.148-4.6l-41.726,7.363Z" transform="translate(-461.769 887)" fill="#fff" stroke="#010101" stroke-width="5"/>
      <path id="패스_22" d="M556.537-473.306l6.262,20.057,9.913,31.749,1.023,55.521h12.477V-378.3H573.735" transform="translate(-461.769 885.115)" fill="none" stroke="#000" stroke-width="5"/>
      <line id="선_5" y2="21" transform="translate(162.731 338.5)" fill="none" stroke="#010101" stroke-linecap="round" stroke-width="5"/>
    </g>
    <path id="패스_38" d="M670.8,257.606l-1.615,15.885h32.04l-1.346-15.885s6.731-4.577,5.385-8.885-8.616-4.846-8.616-4.846-5.587-7.27-11.039-7.27-10.77,7.27-10.77,7.27-6.731-2.692-9.424,3.769S670.8,257.606,670.8,257.606Z" transform="translate(-131.432 -291.064) rotate(43)" fill="none" stroke="#000" stroke-width="5"/>
  </g>
</svg>
