<svg xmlns="http://www.w3.org/2000/svg" width="23.398" height="23.444" viewBox="0 0 23.398 23.444">
  <defs>
    <style>
      .cls-1 {
        fill: #b6edff;
      }

      .cls-2 {
        fill: #92edfc;
      }
    </style>
  </defs>
  <g id="ice" transform="translate(-1005.443 -275.5)">
    <g id="그룹_63" transform="translate(1005.888 287.186)">
      <path id="패스_1218" class="cls-1" d="M86.729,266.777H78.5A1.507,1.507,0,0,1,77,265.269v-8.226a1.507,1.507,0,0,1,1.507-1.507h8.226a1.507,1.507,0,0,1,1.507,1.507v8.226a1.507,1.507,0,0,1-1.507,1.508Z" transform="translate(-76.996 -255.536)"/>
    </g>
    <g id="그룹_64" transform="translate(1011.508 275.945)">
      <path id="패스_1219" class="cls-1" d="M181.659,65.927h-8.478a1.382,1.382,0,0,0-1.382,1.382v8.478a1.382,1.382,0,0,0,1.382,1.382h.242v1.546a.882.882,0,1,0,1.763,0V77.168h1.3V80.64a.882.882,0,0,0,1.763,0V77.168h3.405a1.382,1.382,0,0,0,1.382-1.382V67.309a1.382,1.382,0,0,0-1.382-1.382Z" transform="translate(-171.8 -65.927)"/>
    </g>
    <g id="그룹_65" transform="translate(1017.155 287.186)">
      <path id="패스_1220" class="cls-1" d="M276.8,255.536h-8.226a1.507,1.507,0,0,0-1.507,1.507v8.226a1.507,1.507,0,0,0,1.507,1.507H276.8a1.507,1.507,0,0,0,1.508-1.507v-8.226A1.508,1.508,0,0,0,276.8,255.536Z" transform="translate(-267.062 -255.536)"/>
    </g>
    <g id="그룹_66" transform="translate(1013.842 287.186)">
      <path id="패스_1221" class="cls-2" d="M212.954,255.536h-1.778a1.507,1.507,0,0,1,1.507,1.507v8.226a1.507,1.507,0,0,1-1.507,1.507h1.778a1.507,1.507,0,0,0,1.508-1.507v-8.226A1.508,1.508,0,0,0,212.954,255.536Z" transform="translate(-211.176 -255.536)"/>
    </g>
    <g id="그룹_67" transform="translate(1025.11 287.186)">
      <path id="패스_1222" class="cls-2" d="M403.02,255.536h-1.779a1.507,1.507,0,0,1,1.507,1.507v8.226a1.507,1.507,0,0,1-1.507,1.507h1.779a1.507,1.507,0,0,0,1.507-1.507v-8.226A1.507,1.507,0,0,0,403.02,255.536Z" transform="translate(-401.241 -255.536)"/>
    </g>
    <g id="그룹_68" transform="translate(1019.589 275.945)">
      <path id="패스_1223" class="cls-2" d="M309.883,65.927H308.1a1.382,1.382,0,0,1,1.382,1.382v8.478a1.382,1.382,0,0,1-1.382,1.382h1.779a1.382,1.382,0,0,0,1.382-1.382V67.309A1.382,1.382,0,0,0,309.883,65.927Z" transform="translate(-308.105 -65.927)"/>
    </g>
    <g id="그룹_69" transform="translate(1005.443 275.5)">
      <path id="패스_1224" d="M357.564,346.144h2.5a1.33,1.33,0,0,0,1.328-1.328V341.9a.445.445,0,0,0-.889,0v2.919a.44.44,0,0,1-.439.439h-2.5a.445.445,0,0,0,0,.889Z" transform="translate(-340.068 -324.673)"/>
      <path id="패스_1225" d="M103.987,351.022a.445.445,0,0,0-.445.445v2.5a1.33,1.33,0,0,0,1.328,1.328h2.919a.445.445,0,1,0,0-.889H104.87a.439.439,0,0,1-.439-.439v-2.5A.445.445,0,0,0,103.987,351.022Z" transform="translate(-101.524 -333.676)"/>
      <path id="패스_1226" d="M201.643,97.122a1.33,1.33,0,0,0-1.328,1.328v2.919a.445.445,0,1,0,.889,0V98.45a.44.44,0,0,1,.439-.439h2.5a.445.445,0,1,0,0-.889Z" transform="translate(-192.56 -94.828)"/>
      <path id="패스_1227" d="M32.487,80.964h0a2.234,2.234,0,0,0,.353-1.118V71.62a1.954,1.954,0,0,0-1.952-1.952H26.934a1.815,1.815,0,0,0,.259-.937V66.48a.445.445,0,0,0-.889,0v2.251a.938.938,0,0,1-.937.937H21.962a.445.445,0,0,0-.445.445v3.472a.437.437,0,0,1-.874,0V70.112a.445.445,0,0,0-.445-.445h-1.3a.445.445,0,0,0-.445.445v1.546a.437.437,0,1,1-.874,0V70.112a.445.445,0,0,0-.445-.445h-.242a.938.938,0,0,1-.937-.937V60.253a.938.938,0,0,1,.937-.937h8.478a.938.938,0,0,1,.937.937V64.7a.445.445,0,1,0,.889,0V60.253a1.828,1.828,0,0,0-1.826-1.826H16.889a1.828,1.828,0,0,0-1.826,1.826v8.478a1.815,1.815,0,0,0,.26.937H11.4A1.954,1.954,0,0,0,9.443,71.62v2.334a.445.445,0,0,0,.889,0V71.62A1.064,1.064,0,0,1,11.4,70.557h5.291v1.1a1.326,1.326,0,1,0,2.653,0v-1.1h.415v3.028a1.328,1.328,0,0,0,.957,1.274v4.836a.443.443,0,0,0-.027.152,1.064,1.064,0,0,1-1.063,1.063H11.4a1.064,1.064,0,0,1-1.063-1.063V75.733a.445.445,0,1,0-.889,0v4.113A2.516,2.516,0,0,0,9.734,81l.143.225.13.191.1.1a.952.952,0,0,0,.679.235l20.7.113a1.075,1.075,0,0,0,.743-.47l.116-.177.141-.26ZM22.406,73.585V70.557h8.482a1.064,1.064,0,0,1,1.063,1.063v8.226a1.064,1.064,0,0,1-1.063,1.063H22.663A1.064,1.064,0,0,1,21.6,79.846V74.8a1.328,1.328,0,0,0,.806-1.22Z" transform="translate(-9.443 -58.427)"/>
    </g>
  </g>
</svg>
