<svg id="icon_trash_red_24px" xmlns="http://www.w3.org/2000/svg" width="24" height="24" viewBox="0 0 24 24">
  <g id="그룹_25">
    <rect id="사각형_14" width="24" height="24" fill="none"/>
  </g>
  <g id="그룹_27">
    <g id="그룹_26">
      <path id="패스_30" d="M933.075,284.149v11.036s3.9,2.308,6.531-.6c.552-.611.247-1.922.814-3.153,1.521-3.281,3.165-7.882,3.165-7.882h-10.51Z" transform="translate(-929.575 -278.084)" fill="red"/>
      <path id="패스_25" d="M15,2H11.5l-1-1h-5l-1,1H1V4H15Z"/>
      <path id="패스_26" d="M16,9a6.908,6.908,0,0,0-2,.29V5H2V17a2.006,2.006,0,0,0,2,2H9.68A7,7,0,1,0,16,9ZM9,16a6.634,6.634,0,0,0,.08,1H4V7h8v3.26A7,7,0,0,0,9,16Zm7,5a5,5,0,1,1,5-5A5,5,0,0,1,16,21Z"/>
      <path id="패스_27" d="M16.5,12H15v5l3.6,2.1.8-1.2-2.9-1.7Z" stroke="#000" stroke-width="0.1"/>
    </g>
  </g>
</svg>
