<svg id="icon_diet_update_24px" xmlns="http://www.w3.org/2000/svg" width="24" height="24" viewBox="0 0 24 24">
    <g id="사각형_19" transform="translate(4 4)" fill="#3c82d9" stroke="#707070" stroke-width="1">
        <rect width="16" height="5" stroke="none"/>
        <rect x="0.5" y="0.5" width="15" height="4" fill="none"/>
    </g>
    <path id="패스_31" d="M0,0H24V24H0Z" fill="none"/>
    <path id="패스_32"
          d="M19,3H18V1H16V3H8V1H6V3H5A2.006,2.006,0,0,0,3,5V19a2.006,2.006,0,0,0,2,2H19a2.006,2.006,0,0,0,2-2V5A2.006,2.006,0,0,0,19,3Zm0,16H5V9H19ZM5,7V5H19V7Zm5.56,10.46,5.93-5.93-1.06-1.06-4.87,4.87L8.45,13.23,7.39,14.29Z"/>
</svg>
