<svg id="icon_diet_write_24px" xmlns="http://www.w3.org/2000/svg" width="24" height="24" viewBox="0 0 24 24">
    <rect id="사각형_17" width="16" height="12" transform="translate(4 8)" fill="none"/>
    <rect id="사각형_18" width="16" height="4" transform="translate(4 4)" fill="#3c82d9"/>
    <path id="패스_33" d="M0,0H24V24H0Z" fill="none"/>
    <path id="패스_34"
          d="M19,3H18V1H16V3H8V1H6V3H5A2.006,2.006,0,0,0,3,5V19a2.006,2.006,0,0,0,2,2H19a2.006,2.006,0,0,0,2-2V5A2.006,2.006,0,0,0,19,3Zm0,16H5V9H19ZM5,7V5H19V7Zm2,4H17v2H7Zm0,4h7v2H7Z"/>
</svg>
