<svg xmlns="http://www.w3.org/2000/svg" width="24.47" height="27.4" viewBox="0 0 24.47 27.4">
  <g id="recipe-book" transform="translate(-17.469 -4.234)">
    <path id="패스_1413" d="M31.016,7.527V32.788a.793.793,0,0,0,.793.793H50.355a.793.793,0,0,0,.793-.793V7.527a.793.793,0,0,0-.793-.793H31.809a.793.793,0,0,0-.793.793Z" transform="translate(-12.047 -2.223)" fill="#f2e1d6"/>
    <path id="패스_1414" d="M126.956,103.809a1.864,1.864,0,0,0-1.055.789H124.37c.174-1.128,1.353-1.877,2.141-1.384A1.068,1.068,0,0,1,126.956,103.809Z" transform="translate(-95.068 -87.886)" fill="#f0c020"/>
    <path id="패스_1415" d="M84.029,157.2l-.5,1.505a1.232,1.232,0,0,1-1.17.846H74.914a1.232,1.232,0,0,1-1.17-.846l-.5-1.505Z" transform="translate(-49.604 -136.03)" fill="#13bf6d"/>
    <path id="패스_1416" d="M90,121.409H81.185a4.3,4.3,0,0,1,4.5-4.454h1.813a1.321,1.321,0,0,0,.022,1.663,1.511,1.511,0,0,0,2.212-.517A3.382,3.382,0,0,1,90,121.409Z" transform="translate(-56.66 -100.243)" fill="#f0c020"/>
    <path id="패스_1417" d="M88.716,126.386a.277.277,0,0,1-.2-.336c.02-.077.042-.155.067-.231a.277.277,0,1,1,.526.171c-.021.064-.04.129-.056.195A.277.277,0,0,1,88.716,126.386Zm.474-1.236a.277.277,0,0,1-.05-.388,3.747,3.747,0,0,1,3.054-1.4.277.277,0,1,1,0,.553,3.206,3.206,0,0,0-2.616,1.189A.277.277,0,0,1,89.19,125.15Z" transform="translate(-63.175 -105.938)" fill="#f9e5af"/>
    <path id="패스_1418" d="M138.152,109.649a1.18,1.18,0,0,0-1.168-.25,1.864,1.864,0,0,0-1.055.789,1.321,1.321,0,0,0,.022,1.663,1.511,1.511,0,0,0,2.212-.517A1.331,1.331,0,0,0,138.152,109.649Z" transform="translate(-105.095 -93.476)" fill="#f0c020"/>
    <path id="패스_1419" d="M84.078,28.146H74.2a.448.448,0,0,0-.448.448v3.772a.448.448,0,0,0,.448.448h4.362l.577,1.069.577-1.069h4.362a.448.448,0,0,0,.448-.448V28.594A.448.448,0,0,0,84.078,28.146Z" transform="translate(-50.052 -21.265)" fill="#72c1e8"/>
    <path id="패스_1420" d="M85.517,40.545l.274.4.47.143a.194.194,0,0,1,.1.306l-.3.375.016.494a.194.194,0,0,1-.262.188l-.455-.172-.455.172a.194.194,0,0,1-.262-.188l.016-.494-.3-.375a.194.194,0,0,1,.1-.306l.47-.143.274-.4A.194.194,0,0,1,85.517,40.545Z" transform="translate(-59.448 -32.217)" fill="#f0c020"/>
    <path id="패스_1421" d="M114.216,40.545l.274.4.47.143a.194.194,0,0,1,.1.306l-.3.375.016.494a.194.194,0,0,1-.262.188l-.455-.172-.455.172a.194.194,0,0,1-.262-.188l.016-.494-.3-.375a.194.194,0,0,1,.1-.306l.47-.143.274-.4a.193.193,0,0,1,.319,0Z" transform="translate(-84.97 -32.217)" fill="#7c7b7a"/>
    <path id="패스_1422" d="M142.912,40.545l.274.4.47.143a.194.194,0,0,1,.1.306l-.3.375.016.494a.194.194,0,0,1-.262.188l-.455-.172-.455.172a.194.194,0,0,1-.262-.188l.016-.494-.3-.375a.194.194,0,0,1,.1-.306l.47-.143.274-.4A.193.193,0,0,1,142.912,40.545Z" transform="translate(-110.49 -32.217)" fill="#7c7b7a"/>
    <path id="패스_1423" d="M60.408,45.6H45.723a.277.277,0,1,1,0-.553H60.131V21.7a.277.277,0,1,1,.553,0V45.32A.277.277,0,0,1,60.408,45.6Zm-15.792,0H43.294a.277.277,0,0,1,0-.553h1.323a.277.277,0,1,1,0,.553Z" transform="translate(-22.72 -15.291)" fill="#fff"/>
    <path id="패스_1424" d="M212.886,17.48V22.3h2.562V19.493Z" transform="translate(-173.785 -11.78)" fill="#13bf6d"/>
    <path id="패스_1425" d="M212.886,61.027v4.821h2.562V63.04Z" transform="translate(-173.785 -50.506)" fill="#72c1e8"/>
    <path id="패스_1426" d="M212.886,104.575v4.82h2.562v-2.808Z" transform="translate(-173.785 -89.234)" fill="#f0c020"/>
    <path id="패스_1427" d="M212.886,148.122v4.82h2.562v-2.808Z" transform="translate(-173.785 -127.96)" fill="#fc5d3d"/>
    <path id="패스_1428" d="M212.886,191.669v4.82h2.562v-2.808Z" transform="translate(-173.785 -166.687)" fill="#4c4945"/>
    <path id="패스_1429" d="M64.411,93.532h.531l.434,1.316a1.507,1.507,0,0,0,1.433,1.036h5.041a.277.277,0,0,0,0-.553H66.81a.953.953,0,0,1-.908-.656l-.376-1.141H75.542l-.376,1.141a.953.953,0,0,1-.908.656h-.193a.277.277,0,0,0,0,.553h.193a1.507,1.507,0,0,0,1.433-1.036l.434-1.316h.532a.277.277,0,0,0,0-.553H75.2a3.356,3.356,0,0,0-.308-3.044,1.624,1.624,0,0,0,.03-1.65l1-1,.076.076a.277.277,0,0,0,.391-.391l-.543-.543a.277.277,0,0,0-.391.391l.076.076-1,1a1.461,1.461,0,0,0-.977-.2,1.331,1.331,0,0,0-.249-.34l.75-1.2.091.057a.277.277,0,1,0,.294-.469l-.651-.407a.277.277,0,0,0-.294.469l.091.057-.75,1.2a1.893,1.893,0,0,0-2.259,1.46,5.313,5.313,0,0,0-1.649.237.277.277,0,0,0-.182.348.281.281,0,0,0,.348.18,4.751,4.751,0,0,1,1.424-.21h1.366a1.474,1.474,0,0,0,.273,1.582,1.706,1.706,0,0,0,2.385-.249,3,3,0,0,1,.086,2.567H66.3a4,4,0,0,1,1.059-2.6.276.276,0,0,0-.013-.391.285.285,0,0,0-.392.013,4.533,4.533,0,0,0-1.207,2.983H64.411a.277.277,0,0,0,0,.554Zm9.95-5.074a1.058,1.058,0,0,1-.024,1.334h0l0,0c-.441.656-1.342.928-1.79.468-.425-.434-.178-1.176.258-1.6a1.147,1.147,0,0,1,1.557-.206ZM72.8,87.652a.74.74,0,0,1,.213.206,2.165,2.165,0,0,0-.82.667H71.16C71.444,87.771,72.26,87.316,72.8,87.652Z" transform="translate(-41.499 -72.09)"/>
    <circle id="타원_77" cx="0.277" cy="0.277" r="0.277" transform="translate(31.182 23.241)"/>
    <path id="패스_1430" d="M96.775,120.663a.277.277,0,1,0,.381.089A.278.278,0,0,0,96.775,120.663Z" transform="translate(-70.412 -103.504)"/>
    <path id="패스_1431" d="M72.847,197.932H70.453a.277.277,0,0,0,0,.553h2.394a.277.277,0,1,0,0-.553Z" transform="translate(-46.873 -172.257)"/>
    <path id="패스_1432" d="M72.847,211.643H70.453a.277.277,0,0,0,0,.553h2.394a.277.277,0,1,0,0-.553Z" transform="translate(-46.873 -184.45)"/>
    <path id="패스_1433" d="M72.847,225.354H70.453a.277.277,0,0,0,0,.553h2.394a.277.277,0,1,0,0-.553Z" transform="translate(-46.873 -196.643)"/>
    <path id="패스_1434" d="M113.935,197.932h-6.854a.277.277,0,1,0,0,.553h6.854a.277.277,0,0,0,0-.553Z" transform="translate(-79.446 -172.257)"/>
    <path id="패스_1435" d="M113.935,211.643h-6.854a.277.277,0,1,0,0,.553h6.854a.277.277,0,0,0,0-.553Z" transform="translate(-79.446 -184.45)"/>
    <path id="패스_1436" d="M113.935,225.354h-6.854a.277.277,0,1,0,0,.553h6.854a.277.277,0,0,0,0-.553Z" transform="translate(-79.446 -196.643)"/>
    <path id="패스_1437" d="M84.113,38.6l-.377-.115-.219-.318a.47.47,0,0,0-.775,0l-.218.318-.379.115a.47.47,0,0,0-.231.743l.235.3-.012.385a.47.47,0,0,0,.635.463l.358-.135.358.135a.469.469,0,0,0,.636-.441l-.013-.407.236-.3A.471.471,0,0,0,84.113,38.6Zm-.5.774a.276.276,0,0,0-.06.182l.012.369-.339-.127a.272.272,0,0,0-.2,0l-.339.127.012-.369a.274.274,0,0,0-.06-.182l-.222-.28.354-.107a.281.281,0,0,0,.147-.107l.2-.3.206.3a.276.276,0,0,0,.147.107l.353.107Z" transform="translate(-57.219 -29.993)"/>
    <path id="패스_1438" d="M112.812,38.6l-.377-.115-.219-.317h0a.47.47,0,0,0-.775,0l-.219.318-.377.115a.47.47,0,0,0-.231.743l.235.3c0,.034-.013.374-.013.408a.472.472,0,0,0,.636.439l.358-.135.358.135a.472.472,0,0,0,.636-.441l-.013-.407.235-.3A.47.47,0,0,0,112.812,38.6Zm-.5.774a.274.274,0,0,0-.06.182l.012.369-.339-.127a.265.265,0,0,0-.2,0l-.339.127.013-.369a.271.271,0,0,0-.061-.182l-.221-.28.353-.107a.279.279,0,0,0,.148-.107l.2-.3.2.3a.279.279,0,0,0,.148.107l.353.107Z" transform="translate(-82.742 -29.993)"/>
    <path id="패스_1439" d="M141.51,38.6l-.377-.115-.218-.318h0a.471.471,0,0,0-.775,0l-.218.318-.377.115a.471.471,0,0,0-.232.743l.235.3c-.013.419-.013.405-.013.405a.473.473,0,0,0,.636.443l.359-.135.356.135a.473.473,0,0,0,.638-.439l-.013-.408.235-.3a.47.47,0,0,0-.232-.743Zm-.5.774a.278.278,0,0,0-.06.182l.012.369-.339-.127a.265.265,0,0,0-.2,0l-.339.127.012-.369a.274.274,0,0,0-.06-.182l-.222-.28.354-.107a.277.277,0,0,0,.147-.107l.206-.3.2.3a.276.276,0,0,0,.147.107l.354.107Z" transform="translate(-108.263 -29.993)"/>
    <path id="패스_1440" d="M71.975,30.871h4.2l.5.923a.277.277,0,0,0,.487,0l.5-.923h4.2a.727.727,0,0,0,.725-.725v-.79a.277.277,0,1,0-.553,0v.79a.172.172,0,0,1-.172.172H77.491a.276.276,0,0,0-.244.145l-.333.618-.333-.618a.276.276,0,0,0-.244-.145H71.975a.172.172,0,0,1-.172-.172V26.374a.171.171,0,0,1,.172-.17h9.878a.171.171,0,0,1,.172.17v.768a.277.277,0,1,0,.553,0v-.768a.726.726,0,0,0-.725-.724H71.975a.725.725,0,0,0-.725.724v3.772a.726.726,0,0,0,.725.725Z" transform="translate(-47.828 -19.045)"/>
    <circle id="타원_78" cx="0.277" cy="0.277" r="0.277" transform="translate(34.197 8.927)"/>
    <path id="패스_1441" d="M17.746,27.741a.277.277,0,0,0,0,.553h.946v2.27a1.071,1.071,0,0,0,1.07,1.07H38.308a1.071,1.071,0,0,0,1.07-1.07v-.486h2.285a.277.277,0,0,0,.277-.277V26.995a.277.277,0,0,0-.106-.218L39.9,25.259h1.762a.277.277,0,0,0,.277-.277V22.174a.277.277,0,0,0-.106-.218L39.9,20.438h1.762a.277.277,0,0,0,.277-.277V17.354a.277.277,0,0,0-.106-.218L39.9,15.618h1.762a.277.277,0,0,0,.277-.277V12.534a.277.277,0,0,0-.106-.218L39.9,10.8h1.762a.277.277,0,0,0,.277-.277V7.713a.277.277,0,0,0-.106-.218l-2.456-1.93V5.3a1.071,1.071,0,0,0-1.07-1.07H19.762a1.071,1.071,0,0,0-1.07,1.07v2.27h-.946a.277.277,0,0,0,0,.553h.946v3.48h-.946a.277.277,0,0,0,0,.553h.946v3.48h-.946a.277.277,0,1,0,0,.553h.946v3.48h-.946a.277.277,0,0,0,0,.553h.946v3.48h-.946a.277.277,0,0,0,0,.553h.946v3.48h-.946Zm23.64,1.785H39.377V25.551l2.009,1.578Zm0-4.82H39.377V20.731l2.009,1.578Zm0-4.82H39.377V15.911l2.009,1.578Zm0-4.82H39.377V11.09l2.009,1.578Zm0-7.217v2.4H39.377V6.27ZM19.245,24.261h.908a.277.277,0,1,0,0-.553h-.908v-3.48h.908a.277.277,0,1,0,0-.553h-.908v-3.48h.908a.277.277,0,1,0,0-.553h-.908v-3.48h.908a.277.277,0,1,0,0-.553h-.908V8.128h.908a.277.277,0,1,0,0-.553h-.908V5.3a.517.517,0,0,1,.516-.516H38.308a.517.517,0,0,1,.516.516V30.565a.517.517,0,0,1-.516.516H19.762a.517.517,0,0,1-.516-.516v-2.27h.908a.277.277,0,1,0,0-.553h-.908Z"/>
  </g>
</svg>
