<svg xmlns="http://www.w3.org/2000/svg" width="17.654" height="25.813" viewBox="0 0 17.654 25.813">
  <defs>
    <style>
      .cls-1 {
        fill: #d3ddea;
      }

      .cls-2 {
        fill: #ff7694;
      }

      .cls-3 {
        fill: #e53737;
      }

      .cls-4 {
        fill: #fff;
      }
    </style>
  </defs>
  <g id="thermometer" transform="translate(0.001 0)">
    <path id="패스_1228" class="cls-1" d="M16.8,22.087V10.979a3.373,3.373,0,1,0-6.747,0V22.087a5.821,5.821,0,1,0,6.747,0Zm0,0" transform="translate(-7.223 -7.222)"/>
    <path id="패스_1229" class="cls-2" d="M55.712,65.337a3.776,3.776,0,1,1-5.963-3.078l.858-.611V49.485a1.329,1.329,0,1,1,2.658,0V61.647l.858.611A3.787,3.787,0,0,1,55.712,65.337Zm0,0" transform="translate(-45.733 -45.728)"/>
    <path id="패스_1230" class="cls-3" d="M51.936,69.113a3.776,3.776,0,0,1-2.187-6.854l.858-.611V49.486a1.33,1.33,0,0,1,1.329-1.329c-.418,0-.5.6-.5,1.329V61.648a4.9,4.9,0,0,0-1.652,3.69C49.781,67.42,50.748,69.113,51.936,69.113Zm0,0" transform="translate(-45.733 -45.728)"/>
    <path id="패스_1231" class="cls-4" d="M99.353,49.485v4.44H96.7v-4.44a1.329,1.329,0,1,1,2.658,0Zm0,0" transform="translate(-91.821 -45.728)"/>
    <path id="패스_1232" d="M9.96,14.672V8.014a.383.383,0,0,0-.767,0v6.852a.383.383,0,0,0,.161.312,5.437,5.437,0,1,1-6.3,0,.383.383,0,0,0,.161-.312V3.757a2.99,2.99,0,1,1,5.98,0V6.48a.383.383,0,1,0,.767,0V3.757a3.757,3.757,0,0,0-7.514,0V14.672a6.2,6.2,0,1,0,7.514,0Zm0,0"/>
    <path id="패스_1233" d="M44.714,61.512a3.367,3.367,0,0,1-1.943-.613.383.383,0,1,0-.44.628,4.158,4.158,0,0,0,6.542-3.407,4.172,4.172,0,0,0-1.75-3.391l-.7-.5V42.267a1.712,1.712,0,1,0-3.425,0V54.232l-.7.5a4.157,4.157,0,0,0-1.038,5.715.383.383,0,1,0,.635-.43,3.391,3.391,0,0,1,.848-4.661l.858-.611a.383.383,0,0,0,.161-.312v-1.48H45.66v1.48a.383.383,0,0,0,.161.312l.858.611a3.393,3.393,0,0,1-1.965,6.159Zm.946-15.188H43.769V44.162H45.66Zm-1.891.767H45.66v2.162H43.769Zm.945-5.769a.947.947,0,0,1,.946.946v1.128H43.769V42.267A.947.947,0,0,1,44.714,41.321Zm-.945,10.861V50.02H45.66v2.162Zm0,0" transform="translate(-38.511 -38.51)"/>
    <path id="패스_1234" d="M269.854,76.128c-.267,0-.414.1-.434.3-.058.452-.145,1.135-1.209,1.135-.872,0-1.3-.443-1.3-1.355V73.286c0-.9.427-1.355,1.267-1.355a1.076,1.076,0,0,1,1.238,1.094c.011.2.165.306.434.306s.434-.077.434-.473c0-1.011-.874-1.717-2.125-1.717a1.939,1.939,0,0,0-2.116,2.145v2.926a2.115,2.115,0,0,0,.622,1.658,2.188,2.188,0,0,0,1.484.486c1.257,0,2.135-.718,2.135-1.746C270.288,76.209,270.122,76.128,269.854,76.128Zm0,0" transform="translate(-252.635 -67.554)"/>
    <path id="패스_1235" d="M229.626,25.858a1.252,1.252,0,1,0-1.252,1.252A1.254,1.254,0,0,0,229.626,25.858Zm-1.252.486a.486.486,0,1,1,.485-.486A.486.486,0,0,1,228.374,26.343Zm0,0" transform="translate(-215.672 -23.365)"/>
  </g>
</svg>
